<svg width="18" height="18" viewBox="0 0 18 18" fill="none" xmlns="http://www.w3.org/2000/svg">
<path d="M14.8669 14.7203H12.2816V10.7115C12.2816 9.75554 12.2643 8.52494 10.9369 8.52494C9.59043 8.52494 9.38441 9.56648 9.38441 10.6419V14.72H6.79909V6.47626H9.28099V7.60286H9.31574C9.56412 7.18236 9.92303 6.83644 10.3543 6.60194C10.7855 6.36744 11.2729 6.25314 11.7645 6.27121C14.3848 6.27121 14.868 7.97777 14.868 10.1979L14.8669 14.7203ZM3.882 5.3494C3.58527 5.34945 3.29518 5.26238 3.04843 5.09919C2.80168 4.936 2.60936 4.70403 2.49576 4.43261C2.38215 4.16119 2.35238 3.86251 2.41022 3.57434C2.46806 3.28616 2.6109 3.02145 2.82068 2.81366C3.03046 2.60587 3.29777 2.46434 3.58878 2.40697C3.8798 2.3496 4.18146 2.37896 4.45562 2.49135C4.72978 2.60373 4.96413 2.79409 5.12903 3.03835C5.29392 3.28262 5.38197 3.56981 5.38202 3.86362C5.38206 4.0587 5.34328 4.25187 5.26792 4.43212C5.19255 4.61236 5.08208 4.77614 4.9428 4.91411C4.80351 5.05208 4.63812 5.16153 4.45611 5.23621C4.2741 5.3109 4.07902 5.34936 3.882 5.3494ZM5.17465 14.7203H2.58665V6.47626H5.17465V14.7203ZM16.1558 0.00117704H1.28754C0.950074 -0.00259376 0.624885 0.126448 0.383458 0.359947C0.142032 0.593446 0.0041186 0.912297 0 1.24644V16.0293C0.00397764 16.3636 0.14181 16.6827 0.383228 16.9164C0.624646 17.1502 0.949907 17.2795 1.28754 17.2759H16.1558C16.4941 17.2801 16.8202 17.1512 17.0626 16.9174C17.305 16.6837 17.4437 16.3643 17.4484 16.0293V1.24537C17.4436 0.910568 17.3047 0.591354 17.0624 0.357861C16.82 0.124368 16.4939 -0.00430563 16.1558 0.000110006" fill="#F3F3F3"/>
</svg>
