<svg width="32" height="32" viewBox="0 0 32 32" fill="none" xmlns="http://www.w3.org/2000/svg">
<rect width="32" height="32" rx="6.4" fill="#151515"/>
<path fill-rule="evenodd" clip-rule="evenodd" d="M22.1897 9.77267C20.5473 8.12814 18.3629 7.22203 16.0354 7.22119C11.2395 7.22119 7.33639 11.1239 7.33473 15.9211C7.33389 17.4546 7.7348 18.9515 8.49616 20.2706L7.26172 24.7795L11.8741 23.5697C13.1448 24.2631 14.5757 24.6281 16.0317 24.6285H16.0354C20.8305 24.6285 24.7341 20.7253 24.7358 15.9282C24.7366 13.6032 23.8326 11.4176 22.1897 9.77309V9.77267ZM16.0354 23.1592H16.0325C14.7351 23.1588 13.4623 22.81 12.3518 22.1513L12.0877 21.9944L9.35055 22.7124L10.081 20.0437L9.90915 19.77C9.18534 18.6186 8.80278 17.2878 8.80362 15.9215C8.80529 11.9345 12.0493 8.6905 16.0384 8.6905C17.9699 8.69134 19.7855 9.44435 21.1509 10.8115C22.5164 12.1781 23.2677 13.9954 23.2669 15.9273C23.2652 19.9148 20.0212 23.1588 16.0354 23.1588V23.1592ZM20.002 17.7433C19.7846 17.6345 18.7159 17.1088 18.5164 17.0362C18.317 16.9636 18.1723 16.9273 18.0275 17.1451C17.8827 17.3629 17.466 17.8526 17.3392 17.9974C17.2123 18.1426 17.0855 18.1605 16.8681 18.0516C16.6508 17.9427 15.9504 17.7133 15.1198 16.9728C14.4736 16.3962 14.0371 15.6846 13.9104 15.4668C13.7835 15.249 13.897 15.1314 14.0054 15.0233C14.1031 14.9257 14.2228 14.7693 14.3317 14.6424C14.4406 14.5156 14.4765 14.4247 14.549 14.2799C14.6216 14.1347 14.5853 14.0079 14.5311 13.899C14.4769 13.7901 14.0422 12.72 13.8607 12.2849C13.6842 11.8611 13.5049 11.9187 13.3718 11.9116C13.2449 11.9053 13.1002 11.9041 12.955 11.9041C12.8098 11.9041 12.5745 11.9583 12.3751 12.1761C12.1757 12.3938 11.6142 12.9199 11.6142 13.9895C11.6142 15.0592 12.3931 16.0934 12.5019 16.2386C12.6108 16.3838 14.0351 18.5794 16.2157 19.5214C16.7343 19.7454 17.1393 19.8793 17.4551 19.9794C17.9758 20.1451 18.4497 20.1217 18.8243 20.0658C19.2419 20.0032 20.1105 19.5397 20.2915 19.032C20.4726 18.5243 20.4726 18.0887 20.4184 17.9982C20.3642 17.9077 20.219 17.853 20.0016 17.7442L20.002 17.7433Z" fill="#F3F3F3"/>
</svg>
