<svg width="21" height="15" viewBox="0 0 21 15" fill="none" xmlns="http://www.w3.org/2000/svg">
<g clip-path="url(#clip0_1673_10843)">
<path d="M10.5732 14.4678C10.6215 14.4677 10.693 14.4672 10.7842 14.4668C10.9665 14.4659 11.2289 14.4644 11.5488 14.4609C12.1888 14.4541 13.0588 14.4405 13.9795 14.4131C14.9009 14.3856 15.8717 14.3437 16.7119 14.2822C17.5598 14.2202 18.2524 14.1393 18.6328 14.0371C19.3896 13.8341 19.9971 13.2603 20.248 12.5215L20.293 12.3711C20.504 11.5812 20.6131 10.3404 20.668 9.27734C20.6952 8.75009 20.709 8.27353 20.7158 7.92871C20.7192 7.75634 20.7208 7.61653 20.7217 7.52051C20.7221 7.47264 20.7226 7.4352 20.7227 7.41016V7.33496C20.7226 7.30987 20.7221 7.27256 20.7217 7.22461C20.7208 7.12864 20.7192 6.98952 20.7158 6.81738C20.709 6.47252 20.6952 5.99518 20.668 5.46777C20.6131 4.40475 20.504 3.1638 20.293 2.37402C20.0769 1.56352 19.4399 0.925437 18.6328 0.708984C18.2524 0.606727 17.5598 0.524947 16.7119 0.462891C15.8717 0.401403 14.9009 0.360465 13.9795 0.333008C13.0588 0.305573 12.1888 0.292022 11.5488 0.285156C11.2289 0.281725 10.9665 0.279178 10.7842 0.27832H10.2158C10.0335 0.279178 9.7711 0.281725 9.45117 0.285156C8.81118 0.292022 7.94122 0.305573 7.02051 0.333008C6.09914 0.360465 5.12835 0.401403 4.28809 0.462891C3.44021 0.524946 2.74762 0.606727 2.36719 0.708984C1.56004 0.925434 0.92309 1.56352 0.707031 2.37402C0.496047 3.1638 0.386939 4.40475 0.332031 5.46777C0.304794 5.99518 0.290994 6.47252 0.28418 6.81738C0.280779 6.98952 0.279169 7.12864 0.27832 7.22461C0.277896 7.27256 0.277449 7.30987 0.277344 7.33496V7.41016C0.277449 7.4352 0.277897 7.47264 0.27832 7.52051C0.279169 7.61653 0.280774 7.75634 0.28418 7.92871C0.290996 8.27353 0.304803 8.75009 0.332031 9.27734C0.380066 10.2075 0.469861 11.2735 0.632812 12.0547L0.707031 12.3711C0.923023 13.1817 1.55988 13.8206 2.36719 14.0371C2.74762 14.1393 3.44022 14.2202 4.28809 14.2822C5.12835 14.3437 6.09914 14.3856 7.02051 14.4131C7.94122 14.4405 8.81119 14.4541 9.45117 14.4609C9.77109 14.4644 10.0335 14.4659 10.2158 14.4668C10.307 14.4672 10.3785 14.4677 10.4268 14.4678H10.5732ZM8.0752 3.78516L8.48926 4.01953L13.9775 7.13184L14.4033 7.37305L13.9775 7.61426L8.48926 10.7256L8.0752 10.9609V3.78516Z" fill="#F3F3F3" stroke="black" stroke-width="0.555031"/>
</g>
<defs>
<clipPath id="clip0_1673_10843">
<rect width="21" height="14.7447" fill="white"/>
</clipPath>
</defs>
</svg>
